<svg width="33" height="33" viewBox="0 0 33 33" fill="none" xmlns="http://www.w3.org/2000/svg">
<rect x="1.27344" y="0.813721" width="31" height="31" rx="15.5" fill="#23272C"/>
<rect x="1.27344" y="0.813721" width="31" height="31" rx="15.5" stroke="#41464B"/>
<g clip-path="url(#clip0_5_2474)">
<mask id="path-2-inside-1_5_2474" fill="white">
<path d="M25.1066 11.3136C25.1066 10.397 24.3566 9.64697 23.4399 9.64697H10.1066C9.18994 9.64697 8.43994 10.397 8.43994 11.3136V21.3136C8.43994 22.2303 9.18994 22.9803 10.1066 22.9803H23.4399C24.3566 22.9803 25.1066 22.2303 25.1066 21.3136V11.3136ZM23.4399 11.3136L16.7733 15.4803L10.1066 11.3136H23.4399ZM23.4399 21.3136H10.1066V12.9803L16.7733 17.147L23.4399 12.9803V21.3136Z"/>
</mask>
<path d="M23.4399 11.3136L24.4999 13.0096L30.4135 9.31364H23.4399V11.3136ZM16.7733 15.4803L15.7133 17.1763L16.7733 17.8388L17.8333 17.1763L16.7733 15.4803ZM10.1066 11.3136V9.31364H3.13302L9.04661 13.0096L10.1066 11.3136ZM23.4399 21.3136V23.3136H25.4399V21.3136H23.4399ZM10.1066 21.3136H8.10661V23.3136H10.1066V21.3136ZM10.1066 12.9803L11.1666 11.2843L8.10661 9.37181V12.9803H10.1066ZM16.7733 17.147L15.7133 18.843L16.7733 19.5055L17.8333 18.843L16.7733 17.147ZM23.4399 12.9803H25.4399V9.37181L22.3799 11.2843L23.4399 12.9803ZM27.1066 11.3136C27.1066 9.2924 25.4612 7.64697 23.4399 7.64697V11.647C23.252 11.647 23.1066 11.5015 23.1066 11.3136H27.1066ZM23.4399 7.64697H10.1066V11.647H23.4399V7.64697ZM10.1066 7.64697C8.08537 7.64697 6.43994 9.2924 6.43994 11.3136H10.4399C10.4399 11.5015 10.2945 11.647 10.1066 11.647V7.64697ZM6.43994 11.3136V21.3136H10.4399V11.3136H6.43994ZM6.43994 21.3136C6.43994 23.3349 8.08537 24.9803 10.1066 24.9803V20.9803C10.2945 20.9803 10.4399 21.1257 10.4399 21.3136H6.43994ZM10.1066 24.9803H23.4399V20.9803H10.1066V24.9803ZM23.4399 24.9803C25.4612 24.9803 27.1066 23.3349 27.1066 21.3136H23.1066C23.1066 21.1257 23.252 20.9803 23.4399 20.9803V24.9803ZM27.1066 21.3136V11.3136H23.1066V21.3136H27.1066ZM22.3799 9.61764L15.7133 13.7843L17.8333 17.1763L24.4999 13.0096L22.3799 9.61764ZM17.8333 13.7843L11.1666 9.61764L9.04661 13.0096L15.7133 17.1763L17.8333 13.7843ZM10.1066 13.3136H23.4399V9.31364H10.1066V13.3136ZM23.4399 19.3136H10.1066V23.3136H23.4399V19.3136ZM12.1066 21.3136V12.9803H8.10661V21.3136H12.1066ZM9.04661 14.6763L15.7133 18.843L17.8333 15.451L11.1666 11.2843L9.04661 14.6763ZM17.8333 18.843L24.4999 14.6763L22.3799 11.2843L15.7133 15.451L17.8333 18.843ZM21.4399 12.9803V21.3136H25.4399V12.9803H21.4399Z" fill="#BFBFBF" mask="url(#path-2-inside-1_5_2474)"/>
</g>
<defs>
<clipPath id="clip0_5_2474">
<rect width="20" height="20" fill="white" transform="translate(6.77344 6.31372)"/>
</clipPath>
</defs>
</svg>
